<svg width="16" height="16" viewBox="0 0 16 16" fill="none" xmlns="http://www.w3.org/2000/svg">
<g clip-path="url(#clip0_2013_10)">
<path d="M8.00014 2.93124L7.28312 2.14511C5.60007 0.299784 2.51397 0.936582 1.39994 3.25657C0.876922 4.34777 0.758918 5.92323 1.71395 7.93389C2.63398 9.86989 4.54803 12.1888 8.00014 14.7147C11.4522 12.1888 13.3653 9.86989 14.2863 7.93389C15.2414 5.92217 15.1244 4.34777 14.6003 3.25657C13.4863 0.936582 10.4002 0.298718 8.71716 2.14405L8.00014 2.93124ZM8.00014 16C-7.33333 5.19257 3.27899 -3.2426 7.82413 1.21925C7.88414 1.27827 7.9428 1.33907 8.00014 1.40165C8.05647 1.33868 8.11519 1.27818 8.17614 1.22031C12.7203 -3.24474 23.3336 5.1915 8.00014 16Z" fill="black"/>
</g>
<defs>
<clipPath id="clip0_2013_10">
<rect width="16" height="16" fill="white"/>
</clipPath>
</defs>
</svg>
